<svg width="372" height="60" viewBox="0 0 372 60" fill="none" xmlns="http://www.w3.org/2000/svg">
<path d="M130.944 0.399999H133.884L124.336 20H120.192L110.7 0.399999H113.696L122.292 18.572L130.944 0.399999ZM137.326 20V0.399999H140.126V20H137.326ZM155.299 0.399999C159.051 0.399999 161.963 1.28667 164.035 3.06C166.107 4.81467 167.143 7.19467 167.143 10.2C167.143 13.2053 166.107 15.5947 164.035 17.368C161.963 19.1227 159.051 20 155.299 20H145.611V0.399999H155.299ZM155.047 17.704C158.053 17.704 160.349 17.0227 161.935 15.66C163.541 14.2973 164.343 12.4773 164.343 10.2C164.343 7.92267 163.541 6.10267 161.935 4.74C160.349 3.37733 158.053 2.696 155.047 2.696H148.411V17.704H155.047ZM171.342 20V0.399999H189.206V2.612H174.142V8.968H186.126V11.096H174.142V17.788H189.794V20H171.342ZM194.354 17.536C192.245 15.6507 191.19 13.2053 191.19 10.2C191.19 7.19467 192.245 4.75867 194.354 2.892C196.464 1.00667 199.422 0.0639997 203.23 0.0639997C207.038 0.0639997 209.997 1.00667 212.106 2.892C214.234 4.75867 215.298 7.19467 215.298 10.2C215.298 13.2053 214.234 15.6507 212.106 17.536C209.997 19.4027 207.038 20.336 203.23 20.336C199.422 20.336 196.464 19.4027 194.354 17.536ZM196.398 4.572C194.793 6.028 193.99 7.904 193.99 10.2C193.99 12.496 194.793 14.3813 196.398 15.856C198.022 17.312 200.3 18.04 203.23 18.04C206.18 18.04 208.457 17.312 210.062 15.856C211.686 14.3813 212.498 12.496 212.498 10.2C212.498 7.904 211.686 6.028 210.062 4.572C208.457 3.09733 206.18 2.36 203.23 2.36C200.3 2.36 198.022 3.09733 196.398 4.572ZM125.428 39.4C127.556 39.4 129.255 39.9133 130.524 40.94C131.812 41.9667 132.456 43.4507 132.456 45.392C132.456 47.3333 131.831 48.7987 130.58 49.788C129.329 50.7773 127.612 51.272 125.428 51.272H115.544V59H112.744V39.4H115.544H125.428ZM125.26 49.088C126.623 49.088 127.696 48.7707 128.48 48.136C129.264 47.5013 129.656 46.5867 129.656 45.392C129.656 44.1973 129.264 43.2827 128.48 42.648C127.696 42.0133 126.623 41.696 125.26 41.696H115.544V49.088H125.26ZM153.922 59L145.858 50.992H139.306V59H136.506V39.4H139.306H149.47C151.598 39.4 153.296 39.9133 154.566 40.94C155.854 41.948 156.498 43.3947 156.498 45.28C156.498 47.1653 155.872 48.5933 154.622 49.564C153.371 50.516 151.654 50.992 149.47 50.992H149.134L157.562 59H153.922ZM139.306 41.668V48.836H149.33C150.655 48.836 151.71 48.528 152.494 47.912C153.296 47.296 153.698 46.4187 153.698 45.28C153.698 44.1227 153.296 43.236 152.494 42.62C151.71 41.9853 150.655 41.668 149.33 41.668H139.306ZM162.444 56.536C160.335 54.6507 159.28 52.2053 159.28 49.2C159.28 46.1947 160.335 43.7587 162.444 41.892C164.554 40.0067 167.512 39.064 171.32 39.064C175.128 39.064 178.087 40.0067 180.196 41.892C182.324 43.7587 183.388 46.1947 183.388 49.2C183.388 52.2053 182.324 54.6507 180.196 56.536C178.087 58.4027 175.128 59.336 171.32 59.336C167.512 59.336 164.554 58.4027 162.444 56.536ZM164.488 43.572C162.883 45.028 162.08 46.904 162.08 49.2C162.08 51.496 162.883 53.3813 164.488 54.856C166.112 56.312 168.39 57.04 171.32 57.04C174.27 57.04 176.547 56.312 178.152 54.856C179.776 53.3813 180.588 51.496 180.588 49.2C180.588 46.904 179.776 45.028 178.152 43.572C176.547 42.0973 174.27 41.36 171.32 41.36C168.39 41.36 166.112 42.0973 164.488 43.572ZM197.272 39.4C201.024 39.4 203.936 40.2867 206.008 42.06C208.08 43.8147 209.116 46.1947 209.116 49.2C209.116 52.2053 208.08 54.5947 206.008 56.368C203.936 58.1227 201.024 59 197.272 59H187.584V39.4H197.272ZM197.02 56.704C200.025 56.704 202.321 56.0227 203.908 54.66C205.513 53.2973 206.316 51.4773 206.316 49.2C206.316 46.9227 205.513 45.1027 203.908 43.74C202.321 42.3773 200.025 41.696 197.02 41.696H190.384V56.704H197.02ZM231.598 39.4H234.398V51.076C234.398 53.708 233.512 55.7427 231.738 57.18C229.984 58.6173 227.361 59.336 223.87 59.336C220.361 59.336 217.72 58.6173 215.946 57.18C214.192 55.7427 213.314 53.708 213.314 51.076V39.4H216.114V50.796C216.114 52.8307 216.758 54.38 218.046 55.444C219.353 56.508 221.294 57.04 223.87 57.04C226.428 57.04 228.35 56.508 229.638 55.444C230.945 54.38 231.598 52.8307 231.598 50.796V39.4ZM258.456 52.364L261.116 52.532C260.78 54.604 259.698 56.256 257.868 57.488C256.039 58.72 253.566 59.336 250.448 59.336C246.678 59.336 243.756 58.412 241.684 56.564C239.631 54.6973 238.604 52.2427 238.604 49.2C238.604 46.176 239.622 43.7307 241.656 41.864C243.691 39.9973 246.538 39.064 250.196 39.064C253.108 39.064 255.526 39.652 257.448 40.828C259.371 41.9853 260.519 43.544 260.892 45.504L258.204 45.7C257.906 44.3933 257.019 43.348 255.544 42.564C254.07 41.7613 252.287 41.36 250.196 41.36C247.415 41.36 245.25 42.0973 243.7 43.572C242.17 45.028 241.404 46.904 241.404 49.2C241.404 51.496 242.188 53.3813 243.756 54.856C245.343 56.312 247.574 57.04 250.448 57.04C252.707 57.04 254.536 56.6013 255.936 55.724C257.336 54.8467 258.176 53.7267 258.456 52.364ZM262.542 41.696V39.4H282.926V41.696H274.134V59H271.334V41.696H262.542ZM286.486 59V39.4H289.286V59H286.486ZM296.647 56.536C294.538 54.6507 293.483 52.2053 293.483 49.2C293.483 46.1947 294.538 43.7587 296.647 41.892C298.757 40.0067 301.715 39.064 305.523 39.064C309.331 39.064 312.29 40.0067 314.399 41.892C316.527 43.7587 317.591 46.1947 317.591 49.2C317.591 52.2053 316.527 54.6507 314.399 56.536C312.29 58.4027 309.331 59.336 305.523 59.336C301.715 59.336 298.757 58.4027 296.647 56.536ZM298.691 43.572C297.086 45.028 296.283 46.904 296.283 49.2C296.283 51.496 297.086 53.3813 298.691 54.856C300.315 56.312 302.593 57.04 305.523 57.04C308.473 57.04 310.75 56.312 312.355 54.856C313.979 53.3813 314.791 51.496 314.791 49.2C314.791 46.904 313.979 45.028 312.355 43.572C310.75 42.0973 308.473 41.36 305.523 41.36C302.593 41.36 300.315 42.0973 298.691 43.572ZM340.351 39.4H343.067V59H338.251L324.503 40.856V59H321.787V39.4H326.603L340.351 57.544V39.4Z" fill="white"/>
<g clip-path="url(#clip0_171_3099)">
<path d="M22.42 42.921L15.8729 58.9843H0L18.1948 13.6875L20.3645 28.7991L22.42 42.921Z" fill="white"/>
<path d="M72.3566 0L48.3759 59H32.503L28.1256 28.8148L23.9766 0H40.192L42.3237 15.2639L44.303 29.6142L56.2172 0H72.3566Z" fill="white"/>
<path d="M83.5161 48.1062C83.5161 54.1204 78.6438 58.9927 72.6296 58.9927C66.6154 58.9927 61.7812 54.1204 61.7812 48.1062C61.7812 42.092 66.6535 37.2578 72.6296 37.2578C78.6058 37.2578 83.5161 42.1301 83.5161 48.1062Z" fill="white"/>
</g>
<defs>
<clipPath id="clip0_171_3099">
<rect width="84" height="59" fill="white"/>
</clipPath>
</defs>
</svg>
